<?xml version="1.0" encoding="UTF-8" standalone="no"?>
<!DOCTYPE svg PUBLIC "-//W3C//DTD SVG 1.1//EN" "http://www.w3.org/Graphics/SVG/1.1/DTD/svg11.dtd">
<svg width="100%" height="100%" viewBox="0 0 682 246" version="1.1" xmlns="http://www.w3.org/2000/svg" xmlns:xlink="http://www.w3.org/1999/xlink" xml:space="preserve" xmlns:serif="http://www.serif.com/" style="fill-rule:evenodd;clip-rule:evenodd;stroke-linejoin:round;stroke-miterlimit:2;">
    <g transform="matrix(1,0,0,1,-199.27,-417.48)">
        <path d="M212.73,583.76L214.39,583.76C217.32,583.76 219.75,586.15 219.81,589.07L219.81,639.36C219.81,647.95 217.46,654.18 213.01,657.37C208.89,660.33 203.8,660.16 200.42,659.02L199.96,658.86L199.27,660.77L199.69,660.96C201.71,661.9 204.39,662.5 207.28,662.5C210.72,662.5 214.46,661.66 217.78,659.54C221.91,656.9 226.84,651.3 226.84,639.62L226.84,589.05C226.91,586.13 229.34,583.75 232.26,583.75L233.92,583.75L233.95,581.83L212.7,581.83L212.73,583.75L212.73,583.76Z" style="fill:rgb(92,44,12);fill-rule:nonzero;"/>
        <path d="M379.87,640.25L372.69,581.01L372.64,580.57L371.03,580.57L346.14,635.6L320.81,580.83L320.68,580.54L319.06,580.54L312.06,640.24C311.64,643.44 309.14,645.59 305.82,645.59L303.17,645.59C300.68,645.59 297.36,644.14 295.51,640.07L270.81,580.84L270.68,580.53L269.01,580.53L269.01,581.03C269.01,582.61 266.57,588.28 265.63,590.35L244.68,640.06C242.83,644.13 239.52,645.58 237.04,645.58L235.71,645.58L235.71,647.5L255.31,647.5L255.31,645.58L254,645.58C252.87,645.58 251.79,645.04 251.18,644.18C250.51,643.22 250.42,641.95 250.93,640.52L257,625.04L281.2,625.04L286.99,640.45C287.53,641.92 287.45,643.2 286.77,644.17C286.16,645.04 285.08,645.58 283.94,645.58L282.63,645.58L282.63,647.5L322.75,647.5L322.75,645.63L320.81,645.63C320,645.63 319.18,645.24 318.56,644.56C317.94,643.88 317.63,643.03 317.7,642.23L321.59,598.94L344.44,648.51L344.57,648.8L346.19,648.8L346.26,648.38C346.84,644.67 349.37,639.13 349.39,639.07L368.03,597.63L372.05,642.23C372.13,643.06 371.82,643.91 371.22,644.57C370.61,645.24 369.78,645.63 368.94,645.63L367,645.63L367,647.5L388.09,647.5L388.09,645.58L386.12,645.58C382.8,645.58 380.3,643.43 379.88,640.23L379.87,640.25ZM279.77,621.3L258.46,621.3L269.34,593.54L279.77,621.3Z" style="fill:rgb(92,44,12);fill-rule:nonzero;"/>
        <path d="M413.52,583.76L415.18,583.76L415.21,581.84L393.98,581.84L394.01,583.76L395.67,583.76C398.63,583.76 401.01,586.08 401.09,589.03L401.09,640.28C401.04,643.21 398.6,645.6 395.67,645.6L394.01,645.6L393.98,647.52L415.21,647.52L415.18,645.6L413.52,645.6C410.59,645.6 408.16,643.21 408.1,640.29L408.1,589.02C408.18,586.07 410.56,583.75 413.52,583.75L413.52,583.76Z" style="fill:rgb(92,44,12);fill-rule:nonzero;"/>
        <path d="M468.03,631.91C465.08,639.19 461.38,643.7 452.09,643.7L439.34,643.7L439.34,589.09C439.39,586.16 441.83,583.77 444.76,583.77L446.42,583.77L446.45,581.85L425.21,581.85L425.24,583.77L426.9,583.77C429.83,583.77 432.26,586.16 432.32,589.08L432.32,640.28C432.27,643.21 429.84,645.6 426.9,645.6L425.24,645.6L425.21,647.52L464.38,647.52L470.13,631.59L468.16,631.59L468.03,631.9L468.03,631.91Z" style="fill:rgb(92,44,12);fill-rule:nonzero;"/>
        <path d="M518.57,631.91C515.62,639.19 511.92,643.7 502.63,643.7L489.88,643.7L489.88,617.01L505.07,617.01C507.25,617.1 508.96,618.88 508.96,621.06L508.96,622.92L510.86,622.94L510.86,607.3L508.96,607.33L508.96,609.18C508.96,611.37 507.17,613.19 504.99,613.23L489.87,613.23L489.87,585.66L508.18,585.66C510.82,585.82 512.88,588.02 512.88,590.66L512.88,592.8L514.81,592.83L514.81,579.9L514.12,580.19C512.44,580.9 507.11,581.8 503.3,581.83L475.79,581.83L475.82,583.75L477.48,583.75C480.4,583.75 482.87,585.95 482.87,588.54L482.87,640.27C482.82,643.2 480.38,645.59 477.45,645.59L475.79,645.59L475.76,647.51L514.93,647.51L520.68,631.58L518.7,631.58L518.57,631.89L518.57,631.91Z" style="fill:rgb(92,44,12);fill-rule:nonzero;"/>
        <path d="M664.52,580.55C642.97,580.55 628.49,594.27 628.49,614.69C628.49,635.11 642.97,648.83 664.52,648.83C686.07,648.83 700.54,635.11 700.54,614.69C700.54,594.27 686.06,580.55 664.52,580.55ZM664.52,645.06C647.85,645.06 636.65,632.85 636.65,614.69C636.65,596.53 647.85,584.32 664.52,584.32C681.19,584.32 692.39,596.53 692.39,614.69C692.39,632.85 681.19,645.06 664.52,645.06Z" style="fill:rgb(92,44,12);fill-rule:nonzero;"/>
        <path d="M779.23,640.25L772.05,581.01L772,580.57L770.39,580.57L745.5,635.6L720.17,580.83L720.04,580.54L718.42,580.54L711.42,640.24C711,643.44 708.5,645.59 705.18,645.59L703.21,645.59L703.21,647.51L722.11,647.51L722.11,645.64L720.17,645.64C719.36,645.64 718.54,645.25 717.92,644.57C717.3,643.89 716.99,643.04 717.06,642.24L720.95,598.95L743.8,648.52L743.93,648.81L745.55,648.81L745.62,648.39C746.2,644.68 748.73,639.14 748.75,639.08L767.39,597.64L771.41,642.24C771.49,643.07 771.18,643.92 770.58,644.58C769.97,645.25 769.14,645.64 768.3,645.64L766.36,645.64L766.36,647.51L787.45,647.51L787.45,645.59L785.48,645.59C782.16,645.59 779.66,643.44 779.24,640.24L779.23,640.25Z" style="fill:rgb(92,44,12);fill-rule:nonzero;"/>
        <path d="M836.15,631.91C833.2,639.19 829.5,643.7 820.21,643.7L807.46,643.7L807.46,617.01L822.65,617.01C824.83,617.1 826.54,618.88 826.54,621.06L826.54,622.92L828.44,622.94L828.44,607.3L826.54,607.33L826.54,609.18C826.54,611.37 824.75,613.19 822.57,613.23L807.45,613.23L807.45,585.66L825.76,585.66C828.4,585.82 830.46,588.02 830.46,590.66L830.46,592.8L832.39,592.83L832.39,579.9L831.7,580.19C830.02,580.9 824.69,581.8 820.88,581.83L793.37,581.83L793.4,583.75L795.06,583.75C797.98,583.75 800.45,585.95 800.45,588.54L800.45,640.27C800.4,643.2 797.96,645.59 795.03,645.59L793.37,645.59L793.34,647.51L832.51,647.51L838.26,631.58L836.28,631.58L836.15,631.89L836.15,631.91Z" style="fill:rgb(92,44,12);fill-rule:nonzero;"/>
        <path d="M875.94,619.41L857.78,602.6C854.57,599.62 854.22,595.91 854.22,594.45C854.22,588.68 858.89,584.32 865.09,584.32C868.09,584.32 870.75,585.32 872.56,587.15C874.15,588.75 874.99,590.89 874.98,593.34L874.98,593.84L876.87,593.84L876.87,581.5L872.76,581.5C870.02,580.91 867.04,580.55 864.78,580.55C853.79,580.55 848.04,588.66 848.04,596.67C848.04,601.18 849.92,605.49 853.21,608.49L870.91,624.93C873.21,627.06 874.38,629.84 874.38,633.18C874.38,639.79 869.48,644.68 862.47,645.06C858.67,645.27 855.31,644.04 852.97,641.59C850.4,638.92 849.23,634.96 849.68,630.45L849.73,629.9L848.01,629.9L847.89,630.24C846.4,634.62 846.13,640.58 846.81,643.4L846.84,643.53L846.93,643.63C850.9,647.74 858.86,648.83 862.93,648.83C873.58,648.83 880.73,641.68 880.73,631.05C880.73,626.21 879.16,622.4 875.93,619.42L875.94,619.41Z" style="fill:rgb(92,44,12);fill-rule:nonzero;"/>
        <path d="M619.52,616.86C616.41,616.86 614.66,618.43 614.71,621.21L614.71,637.11C610.33,642.94 601.34,649.5 586.9,649.5C566.45,649.4 552.34,635.43 552.34,614.5C552.34,593.57 566.45,579.5 586.87,579.5C597.45,579.5 604.53,582.36 610.18,585.99L612.12,599.57L611.32,599.57C608.4,588.57 599.6,582.38 586.9,582.38C570.6,582.38 559.55,595.23 559.55,614.5C559.55,633.77 570.6,646.54 586.9,646.62C595.26,646.62 603.05,643.41 608.6,638.28L608.6,621.24C608.6,618.43 606.76,616.85 603.65,616.85L602.13,616.85L602.13,615.89L620.96,615.89L620.96,616.85L619.51,616.85L619.52,616.86Z" style="fill:rgb(92,44,12);fill-rule:nonzero;"/>
        <g>
            <path d="M601.78,439.84L584.26,439.84C584.26,444.68 588.18,448.6 593.02,448.6C595.44,448.6 597.63,447.62 599.22,446.04C600.81,444.45 601.78,442.26 601.78,439.84Z" style="fill:rgb(92,44,12);fill-rule:nonzero;"/>
            <path d="M493.3,446.04C494.89,444.45 495.86,442.26 495.86,439.84L478.33,439.84C478.33,444.68 482.25,448.6 487.09,448.6C489.51,448.6 491.7,447.62 493.29,446.04L493.3,446.04Z" style="fill:rgb(92,44,12);fill-rule:nonzero;"/>
            <path d="M590.51,494.06C590.51,520.02 567.89,541.14 540.08,541.14C512.27,541.14 489.65,520.02 489.65,494.06L489.65,451.12L484.83,451.12L484.83,494.06C484.83,522.68 509.62,545.96 540.08,545.96C570.54,545.96 595.33,522.68 595.33,494.06L595.33,451.02L590.51,451.02L590.51,494.06Z" style="fill:rgb(92,44,12);fill-rule:nonzero;"/>
            <path d="M489.46,422.32L516.52,422.32C520.36,422.32 524.19,422.84 527.9,423.88C530.48,424.6 533,425.56 535.42,426.76C536.47,428.27 537.11,430.04 537.15,431.7L537.15,504.57C537.15,507.22 536.68,509.86 535.81,512.36C535.51,513.24 535.15,514.1 534.76,514.95C534.69,515.1 534.62,515.26 534.53,515.41C534.03,516.43 533.46,517.41 532.84,518.35C530.03,522.56 526.05,525.83 521.59,527.21L521.59,528.26C529.79,528.26 536.94,524.51 541.31,518.65C542,517.73 542.62,516.75 543.16,515.72C543.29,515.48 543.41,515.24 543.53,515C543.93,514.17 544.29,513.32 544.59,512.44C545.4,510.08 545.84,507.55 545.84,504.9L545.84,431.67C545.87,430.34 546.36,428.99 547.16,427.76C547.29,427.68 547.43,427.59 547.56,427.51C549.9,426.11 552.1,425.04 554.27,424.25C554.72,424.08 555.16,423.94 555.58,423.81C558.75,422.8 562.1,422.31 565.82,422.31L590.34,422.31L590.34,436.93L595.16,436.93L595.16,417.49L565.82,417.49C561.6,417.49 557.77,418.05 554.14,419.21C553.66,419.36 553.16,419.53 552.62,419.72C550.16,420.62 547.69,421.81 545.09,423.37C544.37,423.8 543.64,424.26 542.89,424.75L542.44,424.8L541.62,424.69C540.79,424.17 539.95,423.67 539.09,423.2C535.95,421.5 532.63,420.16 529.21,419.21C525.09,418.06 520.83,417.48 516.54,417.48L484.66,417.48L484.66,437.72L489.48,437.72L489.48,422.3L489.46,422.32Z" style="fill:rgb(92,44,12);fill-rule:nonzero;"/>
            <path d="M548.89,507.98C548.6,509.16 548.21,510.32 547.75,511.45C558.53,509.7 565.55,504.18 569.3,499.19L569.3,482.72C569.25,479.84 571.07,478.21 574.29,478.21L575.79,478.21L575.79,477.21L556.28,477.21L556.28,478.21L557.85,478.21C561.06,478.21 562.97,479.84 562.97,482.75L562.97,500.4C559.14,503.94 554.28,506.6 548.89,507.98Z" style="fill:rgb(92,44,12);fill-rule:nonzero;"/>
            <path d="M533.61,443.28L533.61,440.03C516.22,442.84 504.69,456.44 504.69,475.75C504.69,494.01 515.06,507.15 530.98,510.91C531.23,510.47 531.46,510.01 531.68,509.55C531.94,509 532.17,508.44 532.38,507.87C520.05,504.22 512.16,492.25 512.16,475.75C512.16,459.25 520.57,446.41 533.61,443.27L533.61,443.28Z" style="fill:rgb(92,44,12);fill-rule:nonzero;"/>
            <path d="M565.79,460.3L566.62,460.3L564.61,446.23C560.58,443.63 555.84,441.42 549.69,440.3L549.69,443.7C557.88,446.06 563.54,451.79 565.79,460.3Z" style="fill:rgb(92,44,12);fill-rule:nonzero;"/>
        </g>
    </g>
</svg>
