<?xml version="1.0" encoding="UTF-8" standalone="no"?>
<!DOCTYPE svg PUBLIC "-//W3C//DTD SVG 1.1//EN" "http://www.w3.org/Graphics/SVG/1.1/DTD/svg11.dtd">
<svg width="100%" height="100%" viewBox="0 0 696 238" version="1.1" xmlns="http://www.w3.org/2000/svg" xmlns:xlink="http://www.w3.org/1999/xlink" xml:space="preserve" xmlns:serif="http://www.serif.com/" style="fill-rule:evenodd;clip-rule:evenodd;stroke-linejoin:round;stroke-miterlimit:2;">
    <g transform="matrix(1,0,0,1,-192.06,-421.08)">
        <g>
            <path d="M420.57,462.47L388.13,462.47C388.13,471.43 395.39,478.69 404.35,478.69C408.83,478.69 412.88,476.87 415.82,473.94C418.76,471 420.57,466.95 420.57,462.47Z" style="fill:rgb(92,44,12);fill-rule:nonzero;"/>
            <path d="M219.75,473.94C222.69,471 224.5,466.95 224.5,462.47L192.06,462.47C192.06,471.43 199.32,478.69 208.28,478.69C212.76,478.69 216.81,476.87 219.75,473.94Z" style="fill:rgb(92,44,12);fill-rule:nonzero;"/>
            <path d="M399.69,562.82C399.69,610.88 357.81,649.98 306.34,649.98C254.87,649.98 212.99,610.88 212.99,562.82L212.99,483.33L204.06,483.33L204.06,562.82C204.06,615.8 249.94,658.91 306.34,658.91C362.74,658.91 408.62,615.81 408.62,562.82L408.62,483.15L399.69,483.15L399.69,562.82Z" style="fill:rgb(92,44,12);fill-rule:nonzero;"/>
            <path d="M212.64,430.02L262.73,430.02C269.85,430.02 276.93,430.99 283.79,432.9C288.57,434.22 293.24,436.02 297.7,438.23C299.65,441.02 300.83,444.29 300.9,447.38L300.9,582.29C300.9,587.19 300.02,592.08 298.41,596.72C297.85,598.35 297.2,599.95 296.46,601.51C296.33,601.79 296.19,602.08 296.04,602.37C295.12,604.25 294.07,606.08 292.91,607.81C287.7,615.6 280.33,621.67 272.08,624.2L272.08,626.15C287.27,626.15 300.5,619.21 308.59,608.35C309.86,606.65 311.02,604.83 312.01,602.93C312.25,602.49 312.48,602.04 312.69,601.59C313.43,600.06 314.09,598.48 314.65,596.85C316.15,592.49 316.96,587.8 316.96,582.9L316.96,447.33C317.02,444.87 317.92,442.36 319.4,440.1C319.65,439.95 319.9,439.79 320.15,439.64C324.49,437.05 328.55,435.07 332.58,433.6C333.42,433.29 334.22,433.02 335,432.78C340.88,430.91 347.08,430.01 353.96,430.01L399.34,430.01L399.34,457.07L408.27,457.07L408.27,421.09L353.96,421.09C346.14,421.09 339.06,422.13 332.33,424.27C331.43,424.55 330.51,424.86 329.51,425.22C324.95,426.89 320.39,429.1 315.57,431.98C314.24,432.77 312.88,433.63 311.5,434.54L310.67,434.64L309.14,434.43C307.61,433.47 306.05,432.54 304.45,431.67C298.64,428.52 292.48,426.04 286.16,424.29C278.53,422.16 270.64,421.08 262.71,421.08L203.7,421.08L203.7,458.55L212.63,458.55L212.63,430.01L212.64,430.02Z" style="fill:rgb(92,44,12);fill-rule:nonzero;"/>
            <path d="M322.65,588.61C322.11,590.8 321.4,592.94 320.53,595.03C340.49,591.78 353.47,581.58 360.43,572.34L360.43,541.84C360.34,536.51 363.7,533.5 369.66,533.5L372.44,533.5L372.44,531.65L336.32,531.65L336.32,533.5L339.23,533.5C345.18,533.5 348.71,536.53 348.71,541.91L348.71,574.58C341.62,581.13 332.62,586.05 322.65,588.61Z" style="fill:rgb(92,44,12);fill-rule:nonzero;"/>
            <path d="M294.36,468.84L294.36,462.83C262.16,468.02 240.82,493.2 240.82,528.96C240.82,562.76 260.01,587.1 289.49,594.05C289.95,593.23 290.38,592.38 290.78,591.53C291.26,590.51 291.7,589.47 292.08,588.43C269.25,581.68 254.65,559.51 254.65,528.97C254.65,498.43 270.22,474.65 294.36,468.84Z" style="fill:rgb(92,44,12);fill-rule:nonzero;"/>
            <path d="M353.94,500.34L355.47,500.34L351.75,474.29C344.28,469.48 335.51,465.39 324.13,463.31L324.13,469.61C339.3,473.98 349.76,484.58 353.94,500.34Z" style="fill:rgb(92,44,12);fill-rule:nonzero;"/>
        </g>
        <g>
            <path d="M477.03,539.58C482.6,536.02 489.24,528.48 489.24,512.75L489.24,444.8C489.33,440.91 492.56,437.75 496.45,437.75L498.75,437.75L498.8,435.02L470.1,435.02L470.14,437.75L472.44,437.75C476.34,437.75 479.58,440.93 479.65,444.81L479.65,512.4C479.65,523.92 476.5,532.27 470.54,536.55C465.02,540.51 458.22,540.29 453.69,538.76L453,538.53L452.02,541.22L452.64,541.51C455.37,542.77 458.97,543.58 462.87,543.58C467.5,543.58 472.54,542.44 477.02,539.58L477.03,539.58Z" style="fill:rgb(92,44,12);fill-rule:nonzero;"/>
            <path d="M684.23,516.29C684.33,517.39 683.93,518.51 683.14,519.38C682.33,520.27 681.23,520.78 680.13,520.78L677.45,520.78L677.45,523.44L705.93,523.44L705.93,520.71L703.21,520.71C698.79,520.71 695.45,517.85 694.9,513.58L685.26,433.98L685.18,433.33L682.91,433.33L649.5,507.18L615.53,433.73L615.33,433.3L613.04,433.3L603.62,513.59C603.07,517.86 599.72,520.72 595.31,520.72L591.75,520.72C588.43,520.72 584,518.78 581.52,513.35L548.14,433.3L545.78,433.3L545.78,434.04C545.78,436.15 542.51,443.76 541.24,446.54L513.09,513.34C510.62,518.78 506.2,520.71 502.89,520.71L501.03,520.71L501.03,523.44L527.51,523.44L527.51,520.72L525.67,520.72C524.17,520.72 522.75,520.01 521.94,518.87C521.05,517.6 520.94,515.92 521.61,514.01L529.74,493.26L562.17,493.26L569.93,513.92C570.64,515.87 570.54,517.57 569.65,518.85C568.85,520 567.41,520.71 565.91,520.71L564.07,520.71L564.07,523.43L618.12,523.43L618.12,520.77L615.44,520.77C614.37,520.77 613.29,520.25 612.47,519.36C611.66,518.47 611.24,517.35 611.34,516.28L616.54,458.37L647.13,524.74L647.33,525.17L649.61,525.17L649.71,524.54C650.49,519.56 653.88,512.13 653.91,512.05L678.84,456.62L684.22,516.28L684.23,516.29ZM560.22,488.05L531.79,488.05L546.31,451.02L560.22,488.05Z" style="fill:rgb(92,44,12);fill-rule:nonzero;"/>
            <path d="M716.06,520.72L713.76,520.72L713.71,523.45L742.39,523.45L742.34,520.72L740.04,520.72C736.14,520.72 732.9,517.54 732.83,513.66L732.83,444.77C732.94,440.84 736.11,437.76 740.04,437.76L742.34,437.76L742.38,435.03L713.7,435.03L713.74,437.76L716.04,437.76C719.98,437.76 723.15,440.85 723.25,444.77L723.25,513.64C723.18,517.54 719.94,520.72 716.04,520.72L716.06,520.72Z" style="fill:rgb(92,44,12);fill-rule:nonzero;"/>
            <path d="M758.04,437.77C761.94,437.77 765.18,440.95 765.25,444.83L765.25,513.64C765.18,517.54 761.95,520.72 758.04,520.72L755.74,520.72L755.69,523.45L808.45,523.45L816.22,501.9L813.42,501.9L813.23,502.36C809.28,512.11 804.32,518.16 791.87,518.16L774.8,518.16L774.8,444.85C774.87,440.95 778.11,437.77 782.01,437.77L784.31,437.77L784.36,435.04L755.68,435.04L755.73,437.77L758.04,437.77Z" style="fill:rgb(92,44,12);fill-rule:nonzero;"/>
            <path d="M884.15,501.9L881.34,501.9L881.15,502.36C877.2,512.11 872.24,518.16 859.79,518.16L842.72,518.16L842.72,482.44L863.06,482.44C865.96,482.55 868.22,484.91 868.22,487.81L868.22,490.37L870.92,490.4L870.92,469.24L868.22,469.28L868.22,471.84C868.22,474.75 865.85,477.16 862.96,477.21L842.72,477.21L842.72,440.31L867.25,440.31C870.76,440.52 873.5,443.44 873.5,446.96L873.5,449.91L876.24,449.95L876.24,432.39L875.21,432.83C872.96,433.78 865.82,434.98 860.69,435.03L823.65,435.03L823.69,437.75L825.99,437.75C829.87,437.75 833.16,440.67 833.16,444.12L833.16,513.64C833.09,517.54 829.85,520.72 825.95,520.72L823.65,520.72L823.61,523.45L876.37,523.45L884.14,501.9L884.15,501.9Z" style="fill:rgb(92,44,12);fill-rule:nonzero;"/>
            <path d="M637.45,563.63C628.84,555.53 616.99,551.25 603.2,551.25C589.41,551.25 577.56,555.53 568.95,563.63C560.27,571.79 555.69,583.08 555.69,596.28C555.69,609.48 560.28,620.77 568.95,628.93C577.56,637.03 589.41,641.31 603.2,641.31C616.99,641.31 628.84,637.03 637.45,628.93C646.13,620.77 650.71,609.48 650.71,596.28C650.71,583.08 646.12,571.79 637.45,563.63ZM603.2,636.18C581.3,636.18 566.59,620.15 566.59,596.28C566.59,572.41 581.3,556.38 603.2,556.38C625.1,556.38 639.81,572.41 639.81,596.28C639.81,620.15 625.1,636.18 603.2,636.18Z" style="fill:rgb(92,44,12);fill-rule:nonzero;"/>
            <path d="M754.29,629.93L744.84,551.94L744.76,551.29L742.51,551.29L709.79,623.62L676.52,551.69L676.32,551.26L674.05,551.26L664.82,629.93C664.28,634.1 661.01,636.9 656.69,636.9L654.01,636.9L654.01,639.6L679.06,639.6L679.06,636.96L676.42,636.96C675.37,636.96 674.32,636.45 673.52,635.58C672.73,634.71 672.32,633.61 672.42,632.58L677.51,575.9L707.65,641.3L709.91,641.3L710.01,640.67C710.77,635.8 714.09,628.52 714.13,628.44L738.53,574.19L743.79,632.58C743.89,633.65 743.5,634.75 742.72,635.6C741.93,636.47 740.86,636.96 739.79,636.97L737.15,636.97L737.15,639.61L765.08,639.61L765.08,636.91L762.4,636.91C758.08,636.91 754.81,634.11 754.27,629.94L754.29,629.93Z" style="fill:rgb(92,44,12);fill-rule:nonzero;"/>
            <path d="M829.07,618.93C825.2,628.48 820.35,634.4 808.16,634.4L791.46,634.4L791.46,599.44L811.37,599.44C814.2,599.55 816.41,601.86 816.41,604.69L816.41,607.22L819.09,607.25L819.09,586.49L816.41,586.52L816.41,589.05C816.41,591.89 814.1,594.25 811.27,594.3L791.45,594.3L791.45,558.18L815.46,558.18C818.89,558.39 821.57,561.24 821.57,564.68L821.57,567.58L824.29,567.62L824.29,550.38L823.26,550.82C821.06,551.75 814.06,552.93 809.05,552.97L772.74,552.97L772.78,555.67L775.05,555.67C778.85,555.67 782.06,558.52 782.06,561.89L782.06,630C781.99,633.81 778.83,636.92 775.01,636.92L772.74,636.92L772.7,639.62L824.41,639.62L832.04,618.48L829.26,618.48L829.07,618.94L829.07,618.93Z" style="fill:rgb(92,44,12);fill-rule:nonzero;"/>
            <path d="M881.6,602.44L857.69,580.31C853.48,576.41 853.03,571.55 853.03,569.64C853.03,562.09 859.14,556.39 867.25,556.39C871.18,556.39 874.65,557.7 877.03,560.08C879.11,562.17 880.21,564.97 880.2,568.17L880.2,568.92L882.86,568.92L882.86,552.5L877.37,552.5C873.76,551.72 869.83,551.25 866.86,551.25C852.33,551.25 844.73,561.97 844.73,572.55C844.73,578.52 847.22,584.21 851.56,588.17L874.86,609.81C877.87,612.6 879.4,616.23 879.4,620.6C879.4,629.25 872.99,635.65 863.8,636.16C858.85,636.43 854.43,634.82 851.36,631.62C848,628.12 846.47,622.93 847.04,617.02L847.12,616.2L844.7,616.2L844.53,616.71C842.57,622.49 842.21,630.36 843.11,634.08L843.16,634.28L843.3,634.43C848.55,639.86 859.05,641.3 864.43,641.3C878.5,641.3 887.95,631.86 887.95,617.81C887.95,611.41 885.87,606.38 881.6,602.43L881.6,602.44Z" style="fill:rgb(92,44,12);fill-rule:nonzero;"/>
            <path d="M544.11,599.21C540.01,599.21 537.71,601.28 537.77,604.94L537.77,625.89C531.99,633.57 520.16,642.21 501.13,642.21C474.19,642.08 455.6,623.67 455.6,596.1C455.6,568.53 474.19,549.99 501.1,549.99C515.03,549.99 524.37,553.75 531.81,558.54L534.37,576.43L533.32,576.43C529.47,561.93 517.88,553.78 501.15,553.78C479.68,553.78 465.12,570.71 465.12,596.1C465.12,621.49 479.68,638.31 501.15,638.42C512.16,638.42 522.43,634.18 529.74,627.43L529.74,604.98C529.74,601.28 527.31,599.2 523.22,599.2L521.22,599.2L521.22,597.93L546.03,597.93L546.03,599.2L544.12,599.2L544.11,599.21Z" style="fill:rgb(92,44,12);fill-rule:nonzero;"/>
        </g>
    </g>
</svg>
